<?xml version="1.0" encoding="UTF-8"?>
<svg version="1.1" xmlns="http://www.w3.org/2000/svg" width="64" height="64">
<path d="M0 0 C3.50718875 2.9914257 5.28910891 6.29868814 6.125 10.8125 C6.455 10.4825 6.785 10.1525 7.125 9.8125 C9.45797433 9.77157063 11.79205225 9.77008277 14.125 9.8125 C14.125 10.8025 14.125 11.7925 14.125 12.8125 C12.475 13.1425 10.825 13.4725 9.125 13.8125 C9.929375 14.43125 10.73375 15.05 11.5625 15.6875 C15.00468598 18.54199569 15.06144385 19.15575314 15.5 23.6875 C15.71905208 26.71964198 15.27689145 27.62255223 13.34765625 30.03515625 C8.41399864 32.75614318 3.7298029 32.43145246 -1.8125 32.375 C-3.4202832 32.41077148 -3.4202832 32.41077148 -5.06054688 32.44726562 C-13.83395404 32.43096827 -13.83395404 32.43096827 -17.57421875 29.453125 C-19.92619901 26.75373848 -20.67310529 25.34565743 -20.875 21.8125 C-22.855 22.1425 -24.835 22.4725 -26.875 22.8125 C-26.38 21.3275 -26.38 21.3275 -25.875 19.8125 C-22.8125 18.625 -22.8125 18.625 -19.875 17.8125 C-19.92140625 17.08804688 -19.9678125 16.36359375 -20.015625 15.6171875 C-20.24426794 9.49282295 -20.24187225 5.54327827 -15.875 0.8125 C-10.89869178 -2.21292848 -5.31540801 -2.19549461 0 0 Z " fill="#2C211D" transform="translate(38.875,21.1875)"/>
<path d="M0 0 C2.4375 1.875 2.4375 1.875 4 4 C4 4.66 4 5.32 4 6 C5.2065625 6.309375 5.2065625 6.309375 6.4375 6.625 C9 8 9 8 10 10.9375 C10 14 10 14 8.83764648 15.66210938 C4.99866931 18.4570602 -0.36814216 17.51069481 -4.9375 17.5 C-6.58395508 17.54253906 -6.58395508 17.54253906 -8.26367188 17.5859375 C-16.29453948 17.60553693 -16.29453948 17.60553693 -19.7578125 14.6328125 C-21 12 -21 12 -20.9375 9.375 C-19.89215986 6.72680498 -19.41288502 5.52816051 -17 4 C-13.3125 3.8125 -13.3125 3.8125 -10 4 C-10 3.34 -10 2.68 -10 2 C-6.2794164 -0.48038907 -4.40203429 -0.46337203 0 0 Z " fill="#FBFBFB" transform="translate(42,33)"/>
<path d="M0 0 C2.3125 0.625 2.3125 0.625 4 2 C5.75 5.125 5.75 5.125 7 8 C6.3709375 8.10957031 5.741875 8.21914063 5.09375 8.33203125 C0.74443609 9.13770235 -3.33059273 10.0202639 -7.4375 11.6875 C-11 13 -11 13 -14 12 C-13.7579806 7.88567014 -13.32870991 5.4681626 -10.9375 2.0625 C-6.87219081 -0.79186603 -4.90477475 -0.54497497 0 0 Z " fill="#EFAF2B" transform="translate(35,23)"/>
<path d="M0 0 C3.84478875 1.45836815 5.1822915 3.36458299 7 7 C7.6875 9.3125 7.6875 9.3125 8 11 C8.33 10.67 8.66 10.34 9 10 C11.33297433 9.95907063 13.66705225 9.95758277 16 10 C16 10.99 16 11.98 16 13 C14.35 13.33 12.7 13.66 11 14 C11.33 15.65 11.66 17.3 12 19 C11.01 18.67 10.02 18.34 9 18 C8.71382812 17.34515625 8.42765625 16.6903125 8.1328125 16.015625 C7.15801242 13.75998779 7.15801242 13.75998779 4.6171875 13.171875 C3.71226563 13.03265625 2.80734375 12.8934375 1.875 12.75 C0.96492188 12.60046875 0.05484375 12.4509375 -0.8828125 12.296875 C-1.58148438 12.19890625 -2.28015625 12.1009375 -3 12 C-3 11.34 -3 10.68 -3 10 C0.465 9.505 0.465 9.505 4 9 C2.8321734 5.18586998 2.8321734 5.18586998 -0.125 2.6875 C-1.053125 2.3471875 -1.053125 2.3471875 -2 2 C-1.34 2 -0.68 2 0 2 C0 1.34 0 0.68 0 0 Z " fill="#291D18" transform="translate(37,21)"/>
<path d="M0 0 C1.98 0.66 3.96 1.32 6 2 C6 2.99 6 3.98 6 5 C1.25 4.125 1.25 4.125 -1 3 C-0.67 2.01 -0.34 1.02 0 0 Z " fill="#1D1411" transform="translate(13,21)"/>
<path d="M0 0 C-0.33 0.66 -0.66 1.32 -1 2 C-1.66 2 -2.32 2 -3 2 C-3 2.66 -3 3.32 -3 4 C-4.65 4 -6.3 4 -8 4 C-8.33 3.01 -8.66 2.02 -9 1 C-3.375 -1.125 -3.375 -1.125 0 0 Z " fill="#51402B" transform="translate(35,33)"/>
<path d="M0 0 C0.99 0 1.98 0 3 0 C2.67 1.65 2.34 3.3 2 5 C0.68 5.33 -0.64 5.66 -2 6 C-1.49396008 3.83125748 -1.00016187 2.00032373 0 0 Z " fill="#211713" transform="translate(40,14)"/>
<path d="M0 0 C0.99 0 1.98 0 3 0 C5 3 5 3 5 6 C3.68 5.67 2.36 5.34 1 5 C0.67 3.35 0.34 1.7 0 0 Z " fill="#211613" transform="translate(20,14)"/>
<path d="M0 0 C0.99 0 1.98 0 3 0 C3 2.31 3 4.62 3 7 C2.01 7 1.02 7 0 7 C0 4.69 0 2.38 0 0 Z " fill="#221715" transform="translate(30,11)"/>
<path d="M0 0 C1.98 0 3.96 0 6 0 C6.33 0.99 6.66 1.98 7 3 C4.69 3 2.38 3 0 3 C0 2.01 0 1.02 0 0 Z " fill="#231715" transform="translate(10,31)"/>
<path d="M0 0 C-0.33 1.32 -0.66 2.64 -1 4 C-2.65 4.33 -4.3 4.66 -6 5 C-6 4.01 -6 3.02 -6 2 C-2.25 0 -2.25 0 0 0 Z " fill="#231714" transform="translate(50,21)"/>
</svg>
